<?xml version="1.0" encoding="UTF-8" standalone="no"?>
<!DOCTYPE svg PUBLIC "-//W3C//DTD SVG 1.1//EN"
 "http://www.w3.org/Graphics/SVG/1.1/DTD/svg11.dtd">
<!-- Generated by graphviz version 2.40.1 (20161225.0304)
 -->
<!-- Title: revisions Pages: 1 -->
<svg width="206pt" height="260pt"
 viewBox="0.00 0.00 206.00 260.00" xmlns="http://www.w3.org/2000/svg" xmlns:xlink="http://www.w3.org/1999/xlink">
<g id="graph0" class="graph" transform="scale(1 1) rotate(0) translate(4 256)">
<title>revisions</title>
<polygon fill="#ffffff" stroke="transparent" points="-4,4 -4,-256 202,-256 202,4 -4,4"/>
<!-- G -->
<g id="node1" class="node">
<title>G</title>
<ellipse fill="none" stroke="#000000" cx="18" cy="-234" rx="18" ry="18"/>
<text text-anchor="middle" x="18" y="-229.8" font-family="Times,serif" font-size="14.00" fill="#000000">G</text>
</g>
<!-- D -->
<g id="node3" class="node">
<title>D</title>
<ellipse fill="none" stroke="#000000" cx="72" cy="-162" rx="18" ry="18"/>
<text text-anchor="middle" x="72" y="-157.8" font-family="Times,serif" font-size="14.00" fill="#000000">D</text>
</g>
<!-- G&#45;&gt;D -->
<g id="edge1" class="edge">
<title>G&#45;&gt;D</title>
<path fill="none" stroke="#000000" d="M28.9277,-219.4297C36.3934,-209.4754 46.4368,-196.0842 54.9474,-184.7368"/>
<polygon fill="#000000" stroke="#000000" points="57.8885,-186.6486 61.0885,-176.5486 52.2885,-182.4486 57.8885,-186.6486"/>
</g>
<!-- H -->
<g id="node2" class="node">
<title>H</title>
<ellipse fill="none" stroke="#000000" cx="72" cy="-234" rx="18" ry="18"/>
<text text-anchor="middle" x="72" y="-229.8" font-family="Times,serif" font-size="14.00" fill="#000000">H</text>
</g>
<!-- H&#45;&gt;D -->
<g id="edge2" class="edge">
<title>H&#45;&gt;D</title>
<path fill="none" stroke="#000000" d="M72,-215.8314C72,-208.131 72,-198.9743 72,-190.4166"/>
<polygon fill="#000000" stroke="#000000" points="75.5001,-190.4132 72,-180.4133 68.5001,-190.4133 75.5001,-190.4132"/>
</g>
<!-- B -->
<g id="node8" class="node">
<title>B</title>
<ellipse fill="none" stroke="#000000" cx="126" cy="-90" rx="18" ry="18"/>
<text text-anchor="middle" x="126" y="-85.8" font-family="Times,serif" font-size="14.00" fill="#000000">B</text>
</g>
<!-- D&#45;&gt;B -->
<g id="edge5" class="edge">
<title>D&#45;&gt;B</title>
<path fill="none" stroke="#000000" d="M82.9277,-147.4297C90.3934,-137.4754 100.4368,-124.0842 108.9474,-112.7368"/>
<polygon fill="#000000" stroke="#000000" points="111.8885,-114.6486 115.0885,-104.5486 106.2885,-110.4486 111.8885,-114.6486"/>
</g>
<!-- I -->
<g id="node4" class="node">
<title>I</title>
<ellipse fill="none" stroke="#000000" cx="126" cy="-234" rx="18" ry="18"/>
<text text-anchor="middle" x="126" y="-229.8" font-family="Times,serif" font-size="14.00" fill="#000000">I</text>
</g>
<!-- F -->
<g id="node6" class="node">
<title>F</title>
<ellipse fill="none" stroke="#000000" cx="126" cy="-162" rx="18" ry="18"/>
<text text-anchor="middle" x="126" y="-157.8" font-family="Times,serif" font-size="14.00" fill="#000000">F</text>
</g>
<!-- I&#45;&gt;F -->
<g id="edge3" class="edge">
<title>I&#45;&gt;F</title>
<path fill="none" stroke="#000000" d="M126,-215.8314C126,-208.131 126,-198.9743 126,-190.4166"/>
<polygon fill="#000000" stroke="#000000" points="129.5001,-190.4132 126,-180.4133 122.5001,-190.4133 129.5001,-190.4132"/>
</g>
<!-- J -->
<g id="node5" class="node">
<title>J</title>
<ellipse fill="none" stroke="#000000" cx="180" cy="-234" rx="18" ry="18"/>
<text text-anchor="middle" x="180" y="-229.8" font-family="Times,serif" font-size="14.00" fill="#000000">J</text>
</g>
<!-- J&#45;&gt;F -->
<g id="edge4" class="edge">
<title>J&#45;&gt;F</title>
<path fill="none" stroke="#000000" d="M169.0723,-219.4297C161.6066,-209.4754 151.5632,-196.0842 143.0526,-184.7368"/>
<polygon fill="#000000" stroke="#000000" points="145.7115,-182.4486 136.9115,-176.5486 140.1115,-186.6486 145.7115,-182.4486"/>
</g>
<!-- F&#45;&gt;B -->
<g id="edge6" class="edge">
<title>F&#45;&gt;B</title>
<path fill="none" stroke="#000000" d="M126,-143.8314C126,-136.131 126,-126.9743 126,-118.4166"/>
<polygon fill="#000000" stroke="#000000" points="129.5001,-118.4132 126,-108.4133 122.5001,-118.4133 129.5001,-118.4132"/>
</g>
<!-- E -->
<g id="node7" class="node">
<title>E</title>
<ellipse fill="none" stroke="#000000" cx="180" cy="-162" rx="18" ry="18"/>
<text text-anchor="middle" x="180" y="-157.8" font-family="Times,serif" font-size="14.00" fill="#000000">E</text>
</g>
<!-- E&#45;&gt;B -->
<g id="edge7" class="edge">
<title>E&#45;&gt;B</title>
<path fill="none" stroke="#000000" d="M169.0723,-147.4297C161.6066,-137.4754 151.5632,-124.0842 143.0526,-112.7368"/>
<polygon fill="#000000" stroke="#000000" points="145.7115,-110.4486 136.9115,-104.5486 140.1115,-114.6486 145.7115,-110.4486"/>
</g>
<!-- A -->
<g id="node10" class="node">
<title>A</title>
<ellipse fill="none" stroke="#000000" cx="153" cy="-18" rx="18" ry="18"/>
<text text-anchor="middle" x="153" y="-13.8" font-family="Times,serif" font-size="14.00" fill="#000000">A</text>
</g>
<!-- B&#45;&gt;A -->
<g id="edge8" class="edge">
<title>B&#45;&gt;A</title>
<path fill="none" stroke="#000000" d="M132.3986,-72.937C135.593,-64.4186 139.529,-53.9227 143.1018,-44.3952"/>
<polygon fill="#000000" stroke="#000000" points="146.4132,-45.5328 146.6473,-34.9405 139.8589,-43.0749 146.4132,-45.5328"/>
</g>
<!-- C -->
<g id="node9" class="node">
<title>C</title>
<ellipse fill="none" stroke="#000000" cx="180" cy="-90" rx="18" ry="18"/>
<text text-anchor="middle" x="180" y="-85.8" font-family="Times,serif" font-size="14.00" fill="#000000">C</text>
</g>
<!-- C&#45;&gt;A -->
<g id="edge9" class="edge">
<title>C&#45;&gt;A</title>
<path fill="none" stroke="#000000" d="M173.6014,-72.937C170.407,-64.4186 166.471,-53.9227 162.8982,-44.3952"/>
<polygon fill="#000000" stroke="#000000" points="166.1411,-43.0749 159.3527,-34.9405 159.5868,-45.5328 166.1411,-43.0749"/>
</g>
</g>
</svg>
